HIERARCHY
ROOT Hips
{
	OFFSET 0.000000 0.000000 0.000000
	CHANNELS 6 Xposition Yposition Zposition Zrotation Yrotation Xrotation 
	JOINT LHipJoint
	{
		OFFSET 0.000000 0.000000 0.000000
		CHANNELS 3 Zrotation Yrotation Xrotation
		JOINT LeftUpLeg
		{
			OFFSET 1.363060 -1.794630 0.839290
			CHANNELS 3 Zrotation Yrotation Xrotation
			JOINT LeftLeg
			{
				OFFSET 2.448110 -6.726130 0.000000
				CHANNELS 3 Zrotation Yrotation Xrotation
				JOINT LeftFoot
				{
					OFFSET 2.562200 -7.039590 0.000000
					CHANNELS 3 Zrotation Yrotation Xrotation
					JOINT LeftToeBase
					{
						OFFSET 0.157640 -0.433110 2.322550
						CHANNELS 3 Zrotation Yrotation Xrotation
						End Site
						{
							OFFSET 0.000000 0.000000 0.000000
						}
					}
				}
			}
		}
	}
	JOINT RHipJoint
	{
		OFFSET 0.000000 0.000000 0.000000
		CHANNELS 3 Zrotation Yrotation Xrotation
		JOINT RightUpLeg
		{
			OFFSET -1.305520 -1.794630 0.839290
			CHANNELS 3 Zrotation Yrotation Xrotation
			JOINT RightLeg
			{
				OFFSET -2.542530 -6.985550 0.000000
				CHANNELS 3 Zrotation Yrotation Xrotation
				JOINT RightFoot
				{
					OFFSET -2.568260 -7.056230 0.000000
					CHANNELS 3 Zrotation Yrotation Xrotation
					JOINT RightToeBase
					{
						OFFSET -0.164730 -0.452590 2.363150
						CHANNELS 3 Zrotation Yrotation Xrotation
						End Site
						{
							OFFSET 0.000000 0.000000 0.000000
						}
					}
				}
			}
		}
	}
	JOINT LowerBack
	{
		OFFSET 0.000000 0.000000 0.000000
		CHANNELS 3 Zrotation Yrotation Xrotation
		JOINT Spine
		{
			OFFSET 0.028270 2.035590 -0.193380
			CHANNELS 3 Zrotation Yrotation Xrotation
			JOINT Spine1
			{
				OFFSET 0.056720 2.048850 -0.042750
				CHANNELS 3 Zrotation Yrotation Xrotation
				JOINT Neck
				{
					OFFSET 0.000000 0.000000 0.000000
					CHANNELS 3 Zrotation Yrotation Xrotation
					JOINT Neck1
					{
						OFFSET -0.054170 1.746240 0.172020
						CHANNELS 3 Zrotation Yrotation Xrotation
						JOINT Head
						{
							OFFSET 0.104070 1.761360 -0.123970
							CHANNELS 3 Zrotation Yrotation Xrotation
							End Site
							{
								OFFSET 0.000000 0.000000 0.000000
							}
						}
					}
				}
				JOINT LeftShoulder
				{
					OFFSET 0.000000 0.000000 0.000000
					CHANNELS 3 Zrotation Yrotation Xrotation
					JOINT LeftArm
					{
						OFFSET 3.362410 1.200890 -0.311210
						CHANNELS 3 Zrotation Yrotation Xrotation
						JOINT LeftForeArm
						{
							OFFSET 4.983000 -0.000000 -0.000000
							CHANNELS 3 Zrotation Yrotation Xrotation
							JOINT LeftHand
							{
								OFFSET 3.483560 -0.000000 -0.000000
								CHANNELS 3 Zrotation Yrotation Xrotation
								JOINT LeftFingerBase
								{
									OFFSET 0.000000 0.000000 0.000000
									CHANNELS 3 Zrotation Yrotation Xrotation
									JOINT LeftHandIndex1
									{
										OFFSET 0.715260 -0.000000 -0.000000
										CHANNELS 3 Zrotation Yrotation Xrotation
										End Site
										{
											OFFSET 0.000000 0.000000 0.000000
										}
									}
								}
								JOINT LThumb
								{
									OFFSET 0.000000 0.000000 0.000000
									CHANNELS 3 Zrotation Yrotation Xrotation
									End Site
									{
										OFFSET 0.000000 0.000000 0.000000
									}
								}
							}
						}
					}
				}
				JOINT RightShoulder
				{
					OFFSET 0.000000 0.000000 0.000000
					CHANNELS 3 Zrotation Yrotation Xrotation
					JOINT RightArm
					{
						OFFSET -3.136600 1.374050 -0.404650
						CHANNELS 3 Zrotation Yrotation Xrotation
						JOINT RightForeArm
						{
							OFFSET -5.241900 -0.000000 -0.000000
							CHANNELS 3 Zrotation Yrotation Xrotation
							JOINT RightHand
							{
								OFFSET -3.444170 -0.000000 -0.000000
								CHANNELS 3 Zrotation Yrotation Xrotation
								JOINT RightFingerBase
								{
									OFFSET 0.000000 0.000000 0.000000
									CHANNELS 3 Zrotation Yrotation Xrotation
									JOINT RightHandIndex1
									{
										OFFSET -0.622530 -0.000000 -0.000000
										CHANNELS 3 Zrotation Yrotation Xrotation
										End Site
										{
											OFFSET 0.000000 0.000000 0.000000
										}
									}
								}
								JOINT RThumb
								{
									OFFSET 0.000000 0.000000 0.000000
									CHANNELS 3 Zrotation Yrotation Xrotation
									End Site
									{
										OFFSET 0.000000 0.000000 0.000000
									}
								}
							}
						}
					}
				}
			}
		}
	}
}
MOTION
Frames: 6
Frame Time: 0.033333
0.768941 16.471155 -10.942533 86.676110 -21.902509 -36.773646 -91.303217 -46.457521 51.575962 -12.974349 -10.510584 -43.214218 -51.705682 65.695702 -57.141113 14.750270 4.926539 28.303907 2.046049 0.289381 -46.809376 28.198408 -0.558156 -100.322785 34.371712 -67.201907 -108.266772 106.909925 -63.727040 -147.571021 -25.294136 6.014749 21.011830 0.056034 -0.127241 -29.157836 -102.691598 61.170525 -29.639061 -177.006264 76.538092 -175.543977 -152.428902 74.481925 -154.100962 5.197012 8.880328 -5.060001 9.471194 -11.740968 14.928089 0.014280 -0.085337 0.099290 109.941684 66.017809 15.107931 178.922744 86.365899 115.640624 -43.863061 25.221579 -111.293949 -3.580284 -39.660389 21.692234 20.595104 30.562218 43.777171 -0.045965 -0.037064 0.033297 0.096392 0.029069 -0.026277 27.572769 64.509041 63.823420 55.117775 26.184806 -174.823059 22.261661 -49.389657 22.072892 17.482601 -38.977321 29.170022 4.561981 4.405801 -47.701095 -0.038155 0.075117 -0.025184 -0.009432 -0.097444 -0.118131 
0.690614 16.152573 -10.312673 86.865999 -20.986526 -36.095538 -91.403473 -46.335832 49.616157 -10.904066 -7.184877 -42.078237 -57.489034 65.575031 -55.660437 7.540414 4.120155 30.762299 2.295284 0.218574 -45.600109 27.477795 -0.518389 -102.973403 29.524332 -68.139562 -103.406952 105.168607 -59.052215 -144.162246 -26.450801 2.971355 11.261754 0.113030 -0.091570 -26.560332 -104.030013 60.443215 -29.630388 -169.156898 77.431339 -167.139287 -155.712700 73.459909 -159.011074 2.398220 7.960984 -2.481525 14.687859 -11.491248 10.409987 0.090218 -0.072759 0.087602 115.555114 63.833151 21.160832 -169.967358 84.411236 131.082438 -44.644894 20.014306 -102.626149 -17.853204 -42.965689 19.060795 16.240923 36.680876 9.843640 -0.135146 0.001199 0.059385 0.015919 0.071667 0.040944 32.129265 64.096286 66.938223 56.964507 26.865539 -175.394342 25.406810 -53.758958 22.184640 17.331679 -38.567452 26.826003 -2.371001 2.133057 -75.029290 -0.080892 0.017976 -0.012439 -0.027285 -0.065069 0.036787 
0.650991 15.876238 -9.748111 87.702462 -19.382461 -35.897720 -90.859063 -47.133562 47.519448 -8.843282 -3.462252 -40.943538 -68.703707 64.517323 -55.510322 0.334790 8.109055 24.698473 2.193265 0.167730 -40.794025 25.200832 -2.561721 -105.296607 36.540656 -69.999897 -109.597888 106.982285 -55.105696 -138.260262 -19.527119 -0.065597 2.355535 0.337706 -0.097118 -22.536394 -102.911754 58.922021 -27.569105 -174.640425 75.231785 -172.877203 -159.389759 74.688438 -163.804503 1.009367 7.051141 -0.026520 16.257136 -17.797138 4.757065 0.062605 -0.030165 0.065009 115.377637 61.881878 19.424591 168.962738 82.694904 109.176720 -43.806509 17.737516 -100.487491 -15.182319 -38.966377 18.964580 5.179799 25.998626 -32.493850 -0.033862 -0.033555 0.043544 0.023227 0.061847 -0.075909 38.887806 63.087411 72.325448 59.841036 30.339739 -175.358942 20.446756 -52.386562 32.983387 6.970028 -32.828025 31.638301 16.427193 17.082559 -79.969203 -0.069925 0.032751 -0.052959 -0.032507 -0.009296 -0.014077 
0.622780 15.692577 -9.196241 88.002491 -19.196376 -36.361136 -89.392216 -47.235121 47.168369 -6.241224 0.237993 -42.091284 -75.785941 63.838740 -52.957303 8.450852 13.593764 13.709899 2.175720 0.057562 -35.732837 25.681679 -2.240741 -104.979088 39.929549 -68.889312 -114.143538 110.701279 -53.102285 -132.142278 -12.673289 -2.251358 -4.128458 0.544441 -0.105133 -20.255279 -102.163619 58.453223 -25.910091 -173.595993 74.290211 -171.232173 -158.073029 73.679085 -163.316840 2.245120 10.072946 -0.695579 15.946307 -14.879668 6.718945 -0.003535 -0.054417 0.022247 115.025079 62.349589 19.338884 155.176361 80.526062 97.279527 -42.766635 15.104819 -103.094902 5.511520 -37.070279 6.055983 8.567093 20.226584 -26.147491 -0.054608 -0.069386 0.032867 -0.018054 0.040743 -0.057921 47.823655 62.768776 79.989294 61.348271 35.767289 -176.199969 13.572750 -48.063080 44.103913 6.892840 -22.829864 24.777208 26.802508 21.581037 -76.340320 -0.025979 0.024881 -0.057805 -0.079450 -0.057932 -0.043456 
0.558563 15.592116 -8.611268 87.021158 -19.938229 -36.082666 -88.230070 -47.580691 47.949925 -3.989885 3.141881 -43.364817 -76.028607 64.669275 -48.258255 10.649032 16.294186 2.363916 1.552089 0.018706 -31.564013 27.664925 -1.905722 -103.123024 42.380880 -66.035828 -117.609096 111.780789 -53.038199 -125.666283 -6.902810 -2.603258 -6.978129 0.730439 -0.182790 -19.297097 -100.128071 60.629163 -23.332005 -173.263991 72.907691 -170.237579 -157.317995 73.817419 -163.952487 5.908987 8.513229 0.219206 20.942786 -15.226550 9.414443 0.031858 -0.050988 0.044148 113.216362 61.058968 19.326120 148.027840 76.918386 96.760429 -41.324538 13.435696 -106.948927 9.839633 -30.778800 -3.234580 -1.745107 18.579753 -22.674797 0.012130 -0.105110 0.049411 0.024484 0.028377 0.004988 55.946077 62.529938 86.685625 61.738239 38.311433 -178.291248 0.778102 -48.807492 58.850706 4.607276 -9.372890 15.770609 30.134396 38.124337 -77.099280 0.060503 0.035596 0.006163 0.023144 -0.087077 -0.049167 
0.458816 15.580620 -7.987814 86.052566 -20.419304 -34.894720 -92.455717 -48.877233 51.629194 -0.124441 8.068501 -42.481039 -70.734192 64.187453 -43.027395 14.676003 11.900880 -0.212740 1.026681 -0.007940 -29.641432 29.376846 -1.603330 -103.137512 37.674174 -62.272048 -115.235561 112.085542 -56.109218 -125.405033 -2.329971 -2.763693 -6.033892 0.771492 -0.164492 -21.005813 -99.349395 61.853224 -24.578453 -177.222413 73.043756 -174.515774 -158.345982 72.133263 -165.616578 4.109254 4.323008 1.851401 22.083436 -16.150114 5.117284 0.079385 -0.053592 0.000846 111.228484 59.722438 19.755052 150.350636 73.514100 103.281327 -36.293649 13.755710 -105.565648 -2.591651 -18.516313 6.878461 -10.904190 13.758746 -10.309190 -0.018586 0.008155 0.018525 0.031002 -0.011333 -0.051609 59.099818 65.077549 90.972542 63.560429 43.202286 178.363804 -14.446454 -50.201815 75.522293 1.731466 -3.090454 15.787047 30.863616 43.224637 -76.977814 -0.047231 0.030095 -0.025712 -0.038448 0.036445 0.009065 
